<svg width="326" height="317" viewBox="0 0 326 317" fill="none" xmlns="http://www.w3.org/2000/svg">
<rect width="24.3922" height="25.0232" transform="matrix(0.90634 0.42255 -0.454253 0.890873 132.041 227.503)" fill="#0E60FF"/>
<rect width="41.5237" height="41.9766" rx="20.7618" transform="matrix(0.983185 0.182613 -0.199072 0.979985 125.169 181.852)" fill="#F47458"/>
<path d="M13.6945 304.907C17.7826 312.164 26.4589 315.279 26.4589 315.279C26.4589 315.279 28.5071 306.629 24.4191 299.372C20.331 292.115 11.6547 289 11.6547 289C11.6547 289 9.60647 297.65 13.6945 304.907Z" fill="#201F30"/>
<path d="M16.5044 302.52C23.885 306.77 26.7275 315.212 26.7275 315.212C26.7275 315.212 17.6037 316.763 10.2231 312.513C2.84251 308.263 0 299.821 0 299.821C0 299.821 9.12382 298.27 16.5044 302.52Z" fill="#F47458"/>
<path d="M181.978 91.8177H135.928V92.4474H181.978V91.8177Z" fill="#FFCEAE"/>
<path d="M169.479 92.29H168.821V98.1145H169.479V92.29Z" fill="#FFCEAE"/>
<path d="M149.415 92.29H148.757V98.1145H149.415V92.29Z" fill="#FFCEAE"/>
<path d="M205.333 122.042H159.283V122.671H205.333V122.042Z" fill="#FFCEAE"/>
<path d="M172.44 116.375H171.782V122.199H172.44V116.375Z" fill="#FFCEAE"/>
<path d="M192.504 116.375H191.846V122.199H192.504V116.375Z" fill="#FFCEAE"/>
<path d="M266.513 136.209H220.463V136.839H266.513V136.209Z" fill="#FFCEAE"/>
<path d="M233.62 130.542H232.962V136.367H233.62V130.542Z" fill="#FFCEAE"/>
<path d="M253.684 130.542H253.027V136.367H253.684V130.542Z" fill="#FFCEAE"/>
<path d="M261.908 282.293H215.858V282.922H261.908V282.293Z" fill="#FFCEAE"/>
<path d="M229.016 276.626H228.358V282.45H229.016V276.626Z" fill="#FFCEAE"/>
<path d="M249.08 276.626H248.422V282.45H249.08V276.626Z" fill="#FFCEAE"/>
<path d="M183.294 181.231H137.244V181.86H183.294V181.231Z" fill="#FFCEAE"/>
<path d="M150.402 175.564H149.744V181.388H150.402V175.564Z" fill="#FFCEAE"/>
<path d="M170.466 175.564H169.808V181.388H170.466V175.564Z" fill="#FFCEAE"/>
<path d="M197.767 257.106H151.717V257.735H197.767V257.106Z" fill="#FFCEAE"/>
<path d="M164.874 251.439H164.217V257.263H164.874V251.439Z" fill="#FFCEAE"/>
<path d="M184.939 251.439H184.281V257.263H184.939V251.439Z" fill="#FFCEAE"/>
<path d="M271.447 234.123H225.397V234.752H271.447V234.123Z" fill="#FFCEAE"/>
<path d="M238.554 228.456H237.896V234.28H238.554V228.456Z" fill="#FFCEAE"/>
<path d="M258.619 228.456H257.961V234.28H258.619V228.456Z" fill="#FFCEAE"/>
<path d="M126.867 304.26L50.4103 290.06L50.5172 289.533L126.423 303.632L131.61 278.097L62.1317 265.193L60.1237 257.835L60.6659 257.7L62.5848 264.73L132.268 277.673L126.867 304.26Z" fill="#201F30"/>
<path d="M57.9663 304.849C61.1561 305.441 64.2446 303.446 64.8648 300.393C65.485 297.34 63.402 294.385 60.2123 293.792C57.0225 293.2 53.934 295.195 53.3138 298.248C52.6936 301.301 54.7766 304.256 57.9663 304.849Z" fill="#3F3D56"/>
<path d="M114.896 315.422C118.086 316.015 121.174 314.02 121.794 310.967C122.415 307.914 120.332 304.959 117.142 304.366C113.952 303.774 110.864 305.769 110.244 308.822C109.623 311.875 111.706 314.83 114.896 315.422Z" fill="#3F3D56"/>
<path d="M206.279 208.375C208.253 208.742 210.165 207.507 210.549 205.617C210.933 203.727 209.644 201.898 207.669 201.531C205.694 201.164 203.783 202.399 203.399 204.289C203.015 206.179 204.304 208.008 206.279 208.375Z" fill="#3F3D56"/>
<path d="M142.103 271.031L56.1655 255.07L49.3884 193.44L173.07 216.412L172.888 216.734L142.103 271.031ZM56.6793 254.619L141.806 270.43L172.214 216.799L50.0249 194.105L56.6793 254.619Z" fill="#201F30"/>
<path d="M113.431 253.879L66.5197 253.121L56.9358 220.891L124.452 221.982L124.387 222.17L113.431 253.879Z" fill="#00FFC2"/>
<path d="M175.667 211.501L175.163 211.267L181.452 198.847L202.566 202.769L202.459 203.295L181.768 199.452L175.667 211.501Z" fill="#201F30"/>
<path d="M163.307 232.901L51.8147 212.193L51.7077 212.72L163.2 233.428L163.307 232.901Z" fill="#201F30"/>
<path d="M152.982 251.112L54.0742 232.741L53.9673 233.268L152.875 251.638L152.982 251.112Z" fill="#201F30"/>
<path d="M111.449 205.24L110.899 205.138L99.1886 262.787L99.7387 262.89L111.449 205.24Z" fill="#201F30"/>
<path d="M136.079 209.798L120.42 266.712L120.962 266.849L136.621 209.934L136.079 209.798Z" fill="#201F30"/>
<path d="M86.2879 200.549L85.7319 200.481L77.9466 258.86L78.5026 258.928L86.2879 200.549Z" fill="#201F30"/>
<path d="M195.847 99.9933C195.847 99.9933 200.655 113.092 197.696 115.108C194.737 117.123 207.683 133.581 207.683 133.581L223.218 129.55L214.711 115.779C214.711 115.779 213.601 102.009 213.601 99.9933C213.601 97.9781 195.847 99.9933 195.847 99.9933Z" fill="#FFD6BA"/>
<path opacity="0.1" d="M195.847 99.9933C195.847 99.9933 200.655 113.092 197.696 115.108C194.737 117.123 207.683 133.581 207.683 133.581L223.218 129.55L214.711 115.779C214.711 115.779 213.601 102.009 213.601 99.9933C213.601 97.9781 195.847 99.9933 195.847 99.9933Z" fill="black"/>
<path d="M187.776 193.367C187.776 193.367 186.372 210.16 187.776 218.893C189.18 227.626 191.285 251.809 191.285 251.809C191.285 251.809 191.285 297.488 199.005 298.159C206.725 298.831 212.34 299.503 213.041 296.816C213.743 294.129 209.532 292.785 211.638 291.442C213.743 290.098 214.445 285.396 211.638 280.022C208.83 274.648 211.638 220.237 211.638 220.237L224.972 254.496C224.972 254.496 226.376 282.709 227.78 286.74C229.183 290.77 226.376 298.159 231.289 298.831C236.201 299.503 241.816 295.472 244.623 294.129C247.43 292.785 240.412 292.785 241.816 292.114C243.219 291.442 247.43 289.427 246.027 288.755C244.623 288.083 243.219 255.839 243.219 255.839C243.219 255.839 239.359 186.985 234.447 184.298C229.534 181.611 226.376 186.239 226.376 186.239L187.776 193.367Z" fill="#201F30"/>
<path d="M200.408 295.472V300.846C200.408 300.846 194.092 315.454 200.408 315.454C206.725 315.454 211.637 316.968 211.637 314.953V296.816L200.408 295.472Z" fill="#201F30"/>
<path d="M239.998 294.941L240.92 300.242C240.92 300.242 249.657 313.662 243.426 314.653C237.195 315.643 232.609 317.907 232.263 315.919L229.152 298.028L239.998 294.941Z" fill="#201F30"/>
<path d="M199.804 109.097C206.528 110.874 213.488 107.098 215.349 100.661C217.21 94.2247 213.267 87.5658 206.542 85.7882C199.818 84.0106 192.858 87.7874 190.997 94.2239C189.136 100.66 193.079 107.319 199.804 109.097Z" fill="#FFD6BA"/>
<path d="M201.812 120.146C201.812 120.146 205.321 130.222 210.936 128.207L216.551 126.192L226.376 190.679C226.376 190.679 218.656 201.427 207.427 194.71C196.198 187.992 201.812 120.146 201.812 120.146Z" fill="white"/>
<path d="M211.638 118.131L214.796 111.749C214.796 111.749 233.394 120.146 236.201 122.833C239.009 125.52 239.009 129.55 239.009 129.55L234.096 146.344C234.096 146.344 235.499 183.29 235.499 184.634C235.499 185.977 240.412 193.366 236.903 190.679C233.394 187.992 232.692 185.305 229.885 189.336C227.078 193.366 220.761 198.069 220.761 198.069L211.638 118.131Z" fill="#F47458"/>
<path d="M236.201 166.497L234.096 185.306C234.096 185.306 221.463 196.054 224.271 196.725C227.078 197.397 228.481 194.71 228.481 194.71C228.481 194.71 233.394 199.412 236.201 196.725C239.009 194.038 246.027 168.512 246.027 168.512L236.201 166.497Z" fill="#FFD6BA"/>
<path d="M208.195 81.0403C205.522 80.2344 202.647 79.4251 199.968 80.2158C198.719 80.6377 197.552 81.2555 196.515 82.0438C193.523 84.1399 190.632 87.0083 190.493 90.5536L191.552 90.4494C191.296 91.3377 190.836 92.1603 190.206 92.8578C190.449 92.5186 190.725 93.2437 190.495 93.5909L188.485 96.6202C190.392 96.4704 192.191 98.2701 191.949 100.087C193.18 96.2767 194.87 91.9811 198.777 90.5922C200.747 89.8918 202.925 90.0948 205.014 90.3158C206.94 90.5197 208.952 90.7603 210.551 91.8086C212.15 92.8569 213.155 94.9842 212.249 96.6249C213.141 96.5717 213.895 97.356 214.087 98.1916C214.279 99.0271 214.051 99.8929 213.825 100.721C214.524 101.538 215.849 100.633 216.481 99.7663C217.963 97.7329 219.394 95.5299 219.626 93.0612C219.859 90.5925 218.507 87.8173 216.013 87.1495C216.408 86.9111 216.691 86.535 216.802 86.1008L214.792 85.3905C215.335 85.4578 215.885 85.3424 216.349 85.0641C215.272 85.7157 209.517 81.4391 208.195 81.0403Z" fill="#201F30"/>
<path d="M205.321 116.115C205.321 116.115 199.608 110.757 197.552 111.085C195.496 111.413 192.689 116.115 192.689 116.115C192.689 116.115 175.845 121.489 176.547 126.863C177.249 132.237 184.969 158.435 184.969 158.435C184.969 158.435 191.285 190.008 185.671 193.366C180.056 196.725 212.34 205.458 213.041 201.427C213.743 197.397 215.147 157.092 213.041 151.046C210.936 145 205.321 116.115 205.321 116.115Z" fill="#F47458"/>
<path d="M229.885 126.863H238.563C238.563 126.863 244.623 152.39 245.325 155.077C246.027 157.764 247.431 170.527 246.729 170.527C246.027 170.527 231.991 167.84 231.991 169.855L229.885 126.863Z" fill="#F47458"/>
<path d="M229.591 194.351H196.369C193.128 180.077 192.857 166.285 196.369 153.108H229.591C224.23 166.048 223.895 179.745 229.591 194.351Z" fill="#FFCEAE"/>
<path d="M182.863 174.68L192.689 178.711C192.689 178.711 211.638 181.398 211.638 174.009C211.638 166.619 192.689 170.65 192.689 170.65L186.372 168.717L182.863 174.68Z" fill="#FFD6BA"/>
<path d="M184.969 122.833L176.547 124.848L170.23 160.451C170.23 160.451 168.125 169.855 171.634 170.527C175.143 171.199 184.969 176.573 184.969 176.573C184.969 176.573 186.372 166.497 189.179 166.497L182.161 161.123L186.372 137.611L184.969 122.833Z" fill="#F47458"/>
<path d="M65.8672 191.62H19.8174V192.25H65.8672V191.62Z" fill="#FFCEAE"/>
<path d="M32.9745 185.953H32.3167V191.778H32.9745V185.953Z" fill="#FFCEAE"/>
<path d="M53.0392 185.953H52.3813V191.778H53.0392V185.953Z" fill="#FFCEAE"/>
<path d="M81.9846 98.4293H35.9348V99.059H81.9846V98.4293Z" fill="#FFCEAE"/>
<path d="M69.4855 98.9016H68.8276V104.726H69.4855V98.9016Z" fill="#FFCEAE"/>
<path d="M49.421 98.9016H48.7632V104.726H49.421V98.9016Z" fill="#FFCEAE"/>
<path d="M137.307 160.452H91.2573V161.081H137.307V160.452Z" fill="#FFCEAE"/>
<path d="M124.808 160.924H124.15V166.748H124.808V160.924Z" fill="#FFCEAE"/>
<path d="M104.744 160.924H104.086V166.748H104.744V160.924Z" fill="#FFCEAE"/>
<path d="M50.0789 160.137H4.02905V160.766H50.0789V160.137Z" fill="#FFCEAE"/>
<path d="M37.5797 160.609H36.9219V166.433H37.5797V160.609Z" fill="#FFCEAE"/>
<path d="M17.5148 160.609H16.8569V166.433H17.5148V160.609Z" fill="#FFCEAE"/>
<path d="M105.338 128.653H59.2886V129.283H105.338V128.653Z" fill="#FFCEAE"/>
<path d="M72.4459 122.986H71.7881V128.811H72.4459V122.986Z" fill="#FFCEAE"/>
<path d="M92.5104 122.986H91.8525V128.811H92.5104V122.986Z" fill="#FFCEAE"/>
</svg>
